<svg xmlns="http://www.w3.org/2000/svg" width="880" height="240" viewBox="0 0 880 240" role="img" aria-label="qtjg/quanta-terminal 3D banner">
<defs>
<linearGradient id="bg40eb10b9" x1="0" y1="0" x2="0" y2="1">
<stop offset="0" stop-color="#18140c"/>
<stop offset="1" stop-color="#312817"/>
</linearGradient>
<linearGradient id="lg40eb10b9" x1="0" y1="0" x2="0" y2="1">
<stop offset="0" stop-color="#f7ce82"/>
<stop offset="1" stop-color="#ccf631"/>
</linearGradient>
<clipPath id="clip"><rect width="880" height="240"/></clipPath>
</defs>
<rect width="880" height="240" fill="url(#bg40eb10b9)"/>
<ellipse cx="100" cy="232" rx="96" ry="15" fill="#dda43c" opacity="0.18">
<animate attributeName="opacity" values="0.12;0.26;0.12" dur="5s" repeatCount="indefinite"/>
</ellipse>
<ellipse cx="792" cy="236" rx="100" ry="15" fill="#c4dd3c" opacity="0.18">
<animate attributeName="opacity" values="0.12;0.26;0.12" dur="5s" begin="1.2s" repeatCount="indefinite"/>
</ellipse>
<g><animateTransform attributeName="transform" type="translate" values="0 0; 0 -6; 0 0" dur="5.2s" begin="0.0s" repeatCount="indefinite" calcMode="spline" keySplines="0.45 0 0.55 1; 0.45 0 0.55 1" keyTimes="0;0.5;1"/><polygon points="86.0,126.0 122.0,108.0 86.0,90.0 50.0,108.0" fill="#d2a756" stroke="#f7e0b6" stroke-width="0.8"/><polygon points="50.0,178.0 86.0,196.0 86.0,126.0 50.0,108.0" fill="#a47a2b"/><polygon points="86.0,196.0 122.0,178.0 122.0,108.0 86.0,126.0" fill="#75571f"/></g><g><animateTransform attributeName="transform" type="translate" values="0 0; 0 -5; 0 0" dur="6.1s" begin="0.7s" repeatCount="indefinite" calcMode="spline" keySplines="0.45 0 0.55 1; 0.45 0 0.55 1" keyTimes="0;0.5;1"/><polygon points="64.0,184.0 90.0,171.0 64.0,158.0 38.0,171.0" fill="#d2cc56" stroke="#f7f4b6" stroke-width="0.8"/><polygon points="38.0,213.0 64.0,226.0 64.0,184.0 38.0,171.0" fill="#a49e2b"/><polygon points="64.0,226.0 90.0,213.0 90.0,171.0 64.0,184.0" fill="#75711f"/></g><g><animateTransform attributeName="transform" type="translate" values="0 0; 0 -7; 0 0" dur="5.7s" begin="1.4s" repeatCount="indefinite" calcMode="spline" keySplines="0.45 0 0.55 1; 0.45 0 0.55 1" keyTimes="0;0.5;1"/><polygon points="112.0,124.0 134.0,113.0 112.0,102.0 90.0,113.0" fill="#d68266" stroke="#f9d4c8" stroke-width="0.8"/><polygon points="90.0,141.0 112.0,152.0 112.0,124.0 90.0,113.0" fill="#af4f2e"/><polygon points="112.0,152.0 134.0,141.0 134.0,113.0 112.0,124.0" fill="#7d3821"/></g><g><animateTransform attributeName="transform" type="translate" values="0 0; 0 -6; 0 0" dur="5.5s" begin="0.4s" repeatCount="indefinite" calcMode="spline" keySplines="0.45 0 0.55 1; 0.45 0 0.55 1" keyTimes="0;0.5;1"/><polygon points="794.0,124.0 832.0,105.0 794.0,86.0 756.0,105.0" fill="#bfd256" stroke="#edf7b6" stroke-width="0.8"/><polygon points="756.0,181.0 794.0,200.0 794.0,124.0 756.0,105.0" fill="#92a42b"/><polygon points="794.0,200.0 832.0,181.0 832.0,105.0 794.0,124.0" fill="#68751f"/></g><g><animateTransform attributeName="transform" type="translate" values="0 0; 0 -5; 0 0" dur="6.4s" begin="1.1s" repeatCount="indefinite" calcMode="spline" keySplines="0.45 0 0.55 1; 0.45 0 0.55 1" keyTimes="0;0.5;1"/><polygon points="816.0,184.0 842.0,171.0 816.0,158.0 790.0,171.0" fill="#d25856" stroke="#f7b7b6" stroke-width="0.8"/><polygon points="790.0,215.0 816.0,228.0 816.0,184.0 790.0,171.0" fill="#a42d2b"/><polygon points="816.0,228.0 842.0,215.0 842.0,171.0 816.0,184.0" fill="#75201f"/></g><g><animateTransform attributeName="transform" type="translate" values="0 0; 0 -7; 0 0" dur="5.9s" begin="1.8s" repeatCount="indefinite" calcMode="spline" keySplines="0.45 0 0.55 1; 0.45 0 0.55 1" keyTimes="0;0.5;1"/><polygon points="768.0,124.0 790.0,113.0 768.0,102.0 746.0,113.0" fill="#d6be66" stroke="#f9eec8" stroke-width="0.8"/><polygon points="746.0,143.0 768.0,154.0 768.0,124.0 746.0,113.0" fill="#af932e"/><polygon points="768.0,154.0 790.0,143.0 790.0,113.0 768.0,124.0" fill="#7d6921"/></g><g><animateTransform attributeName="transform" type="translate" values="0 0; 0 -8; 0 0" dur="6.8s" begin="0.3s" repeatCount="indefinite" calcMode="spline" keySplines="0.45 0 0.55 1; 0.45 0 0.55 1" keyTimes="0;0.5;1"/><g opacity="0.85"><polygon points="252.0,40.0 266.0,33.0 252.0,26.0 238.0,33.0" fill="#a7d45e" stroke="#e2f8bf" stroke-width="0.8"/><polygon points="238.0,51.0 252.0,58.0 252.0,40.0 238.0,33.0" fill="#7aa92d"/><polygon points="252.0,58.0 266.0,51.0 266.0,33.0 252.0,40.0" fill="#577920"/></g></g><g><animateTransform attributeName="transform" type="translate" values="0 0; 0 -8; 0 0" dur="7.3s" begin="1.5s" repeatCount="indefinite" calcMode="spline" keySplines="0.45 0 0.55 1; 0.45 0 0.55 1" keyTimes="0;0.5;1"/><g opacity="0.85"><polygon points="632.0,36.0 645.0,29.5 632.0,23.0 619.0,29.5" fill="#d45e6c" stroke="#f8bfc5" stroke-width="0.8"/><polygon points="619.0,45.5 632.0,52.0 632.0,36.0 619.0,29.5" fill="#a92d3b"/><polygon points="632.0,52.0 645.0,45.5 645.0,29.5 632.0,36.0" fill="#79202a"/></g></g>
<line x1="0" y1="206.5" x2="880" y2="206.5" stroke="#c2a570" stroke-opacity="0.14"/>
<text x="446.0" y="132" font-family="'Segoe UI',-apple-system,'Helvetica Neue',Arial,sans-serif" font-size="58" font-weight="800" text-anchor="middle" fill="#372b15">quanta-terminal</text><text x="445.0" y="131" font-family="'Segoe UI',-apple-system,'Helvetica Neue',Arial,sans-serif" font-size="58" font-weight="800" text-anchor="middle" fill="#342914">quanta-terminal</text><text x="444.0" y="130" font-family="'Segoe UI',-apple-system,'Helvetica Neue',Arial,sans-serif" font-size="58" font-weight="800" text-anchor="middle" fill="#302612">quanta-terminal</text><text x="443.0" y="129" font-family="'Segoe UI',-apple-system,'Helvetica Neue',Arial,sans-serif" font-size="58" font-weight="800" text-anchor="middle" fill="#2c2311">quanta-terminal</text><text x="442.0" y="128" font-family="'Segoe UI',-apple-system,'Helvetica Neue',Arial,sans-serif" font-size="58" font-weight="800" text-anchor="middle" fill="#29200f">quanta-terminal</text><text x="441.0" y="127" font-family="'Segoe UI',-apple-system,'Helvetica Neue',Arial,sans-serif" font-size="58" font-weight="800" text-anchor="middle" fill="#251d0e">quanta-terminal</text><text x="440.0" y="126" font-family="'Segoe UI',-apple-system,'Helvetica Neue',Arial,sans-serif" font-size="58" font-weight="800" text-anchor="middle" fill="url(#lg40eb10b9)" letter-spacing="1">quanta-terminal</text>
<text x="440.0" y="164" font-family="'Segoe UI',-apple-system,'Helvetica Neue',Arial,sans-serif" font-size="15" text-anchor="middle" fill="#d1cabd" opacity="0.92" letter-spacing="0.5">⬛ QUANTA — AI-Native Linux Terminal in the browser: 85 real commands, O…</text>
<text x="440.0" y="206" font-family="'Segoe UI',-apple-system,'Helvetica Neue',Arial,sans-serif" font-size="12" font-weight="600" text-anchor="middle" fill="#bfab88" opacity="0.85" letter-spacing="3">qtjg/quanta-terminal</text>
<g clip-path="url(#clip)"><polygon points="0,0 150,0 60,240 -90,240" fill="#ffffff" opacity="0.055"><animateTransform attributeName="transform" type="translate" from="-260 0" to="1140 0" dur="7.0s" repeatCount="indefinite"/></polygon></g>
<rect x="0" y="0" width="880" height="3" fill="url(#lg40eb10b9)" opacity="0.9"/>
<rect x="0" y="236" width="880" height="4" fill="#a17b36" opacity="0.55"/>
</svg>